<svg xmlns="http://www.w3.org/2000/svg" height="830.667" width="1000"><defs><clipPath id="a"><path d="M-9.966-78.128h177.932v147.86H-9.966z"/></clipPath><clipPath id="b"><path d="M-9.966-78.128h177.932v147.86H-9.966z"/></clipPath><clipPath id="c"><path d="M-9.966-78.128h177.932v147.86H-9.966z"/></clipPath><clipPath id="d"><path d="M-9.966-78.128h177.932v147.86H-9.966z"/></clipPath><clipPath id="e"><path d="M-9.966-78.128h177.932v147.86H-9.966z"/></clipPath><clipPath id="f"><path d="M-9.966-78.128h177.932v147.86H-9.966z"/></clipPath><clipPath id="g"><path d="M-9.966-78.128h177.932v147.86H-9.966z"/></clipPath><clipPath id="h"><path d="M-9.966-78.128h177.932v147.86H-9.966z"/></clipPath><clipPath id="i"><path d="M-9.966-78.128h177.932v147.86H-9.966z"/></clipPath><clipPath id="j"><path d="M-9.966-78.128h177.932v147.86H-9.966z"/></clipPath><clipPath id="k"><path d="M-9.966-78.128h177.932v147.86H-9.966z"/></clipPath><clipPath id="l"><path d="M-9.966-78.128h177.932v147.86H-9.966z"/></clipPath><clipPath id="m"><path d="M-9.966-78.128h177.932v147.86H-9.966z"/></clipPath><clipPath id="n"><path d="M-25.861-164.271h274.1v236.77h-274.1z"/></clipPath><clipPath id="o"><path d="M-25.861-164.271h274.1v236.77h-274.1z"/></clipPath><clipPath id="p"><path d="M-25.861-164.271h274.1v236.77h-274.1z"/></clipPath><clipPath id="q"><path d="M-25.861-164.271h274.1v236.77h-274.1z"/></clipPath><clipPath id="r"><path d="M-25.861-164.271h274.1v236.77h-274.1z"/></clipPath><clipPath id="s"><path d="M-25.861-164.271h274.1v236.77h-274.1z"/></clipPath><clipPath id="t"><path d="M-25.861-164.271h274.1v236.77h-274.1z"/></clipPath><clipPath id="u"><path d="M-25.861-164.271h274.1v236.77h-274.1z"/></clipPath><clipPath id="v"><path d="M-25.861-164.271h274.1v236.77h-274.1z"/></clipPath><clipPath id="w"><path d="M-25.861-164.271h274.1v236.77h-274.1z"/></clipPath><clipPath id="x"><path d="M-25.861-164.271h274.1v236.77h-274.1z"/></clipPath><clipPath id="y"><path d="M-25.861-164.271h274.1v236.77h-274.1z"/></clipPath><clipPath id="z"><path d="M-25.861-164.271h274.1v236.77h-274.1z"/></clipPath><clipPath id="A"><path d="M-25.861-164.271h274.1v236.77h-274.1z"/></clipPath><clipPath id="B"><path d="M-25.861-164.271h274.1v236.77h-274.1z"/></clipPath><clipPath id="C"><path d="M-25.861-164.271h274.1v236.77h-274.1z"/></clipPath><clipPath id="D"><path d="M-25.861-164.271h274.1v236.77h-274.1z"/></clipPath><clipPath id="E"><path d="M-25.861-164.271h274.1v236.77h-274.1z"/></clipPath><clipPath id="F"><path d="M-25.861-164.271h274.1v236.77h-274.1z"/></clipPath><clipPath id="G"><path d="M-25.861-164.271h274.1v236.77h-274.1z"/></clipPath><clipPath id="H"><path d="M-25.861-164.271h274.1v236.77h-274.1z"/></clipPath><clipPath id="I"><path d="M-25.861-164.271h274.1v236.77h-274.1z"/></clipPath><clipPath id="J"><path d="M-25.861-164.271h274.1v236.77h-274.1z"/></clipPath><clipPath id="K"><path d="M-25.861-164.271h274.1v236.77h-274.1z"/></clipPath><clipPath id="L"><path d="M-25.861-164.271h274.1v236.77h-274.1z"/></clipPath><clipPath id="M"><path d="M-25.861-164.271h274.1v236.77h-274.1z"/></clipPath><clipPath id="N"><path d="M-25.861-164.271h274.1v236.77h-274.1z"/></clipPath><clipPath id="O"><path d="M-25.861-164.271h274.1v236.77h-274.1z"/></clipPath><clipPath id="P"><path d="M-25.861-164.271h274.1v236.77h-274.1z"/></clipPath><clipPath id="Q"><path d="M-25.861-164.271h274.1v236.77h-274.1z"/></clipPath><clipPath id="R"><path d="M-25.861-164.271h274.1v236.77h-274.1z"/></clipPath><clipPath id="S"><path d="M-25.861-164.271h274.1v236.77h-274.1z"/></clipPath><clipPath id="T"><path d="M-25.861-164.271h274.1v236.77h-274.1z"/></clipPath><clipPath id="U"><path d="M-25.861-164.271h274.1v236.77h-274.1z"/></clipPath><clipPath id="V"><path d="M-25.861-164.271h274.1v236.77h-274.1z"/></clipPath><clipPath id="W"><path d="M-125.128-135.868h875.465v727.511h-875.465z"/></clipPath><clipPath id="X"><path d="M-125.128-135.868h875.465v727.511h-875.465z"/></clipPath></defs><g clip-path="url(#a)" transform="matrix(5.62015 0 0 5.6179 56.008 438.916)"><path d="M14.04 9c-.727.48-.868.527-.868.527.012-.047.176-.175.176-.175.304-.247.304-.305.304-.305 0-.059-.047-.106-.047-.106-.046-.046-.117-.07-.117-.07-.07-.023-.129-.059-.129-.059a5.802 5.802 0 0 0-.445-.164c-.926-.363-2.66-.363-2.66-.363-1.734 0-2.988.399-2.988.399a6.275 6.275 0 0 0-2.145 1.23c-1.816 1.7-1.816 4.945-1.816 4.945 0 3.293 1.804 5.567 1.804 5.567 1.946 2.437 5.11 2.437 5.11 2.437 2.097 0 5.144-1.336 5.144-1.336l-.175.153c-.118.129-.293.27-.293.27-3.41 2.554-7.067 2.554-7.067 2.554-3.152 0-5.039-2.379-5.039-2.379-1.746-2.215-1.746-5.496-1.746-5.496 0-1.688.492-2.848.492-2.848.492-1.16 1.172-2.086 1.172-2.086.68-.925 1.512-1.687 1.512-1.687.832-.762 1.84-1.383 1.84-1.383C7.066 8.004 8.12 7.57 8.12 7.57c2.191-.89 4.418-.89 4.418-.89 1.254 0 2.11.21 2.11.21.855.212 1.078.329 1.078.329.222.117.234.199.234.199.012.082-.188.281-.188.281-.199.2-.468.387-.468.387-.27.187-.621.469-.621.469a5.293 5.293 0 0 1-.645.445z" fill="#07385c"/></g><g clip-path="url(#b)" transform="matrix(5.62015 0 0 5.6179 56.008 438.916)"><path d="M25.125 20.531l-.023.82c0 .915.515 1.16.515 1.16.2.094.457.094.457.094.41 0 .844-.187.844-.187a2.945 2.945 0 0 0-.773.492c-.329.305-.668.598-.668.598-.844.703-1.7.703-1.7.703-.855 0-.914-.984-.914-.984-.023-.258-.023-.516-.023-.516-2.11 1.465-3.867 1.465-3.867 1.465-1.489 0-2.063-.903-2.063-.903-.21-.328-.21-.902-.21-.902 0-.574.35-1.148.35-1.148.352-.575.891-1.067.891-1.067.961-.89 2.32-1.465 2.32-1.465 1.009-.433 2.59-.492 2.59-.492v-.515c0-1.864-.34-2.52-.34-2.52a2.496 2.496 0 0 0-.878-.96c-.54-.306-1.266-.317-1.266-.317-1.23 0-2.168.48-2.168.48 1.29-1.066 1.887-1.406 1.887-1.406 1.23-.691 2.226-.691 2.226-.691.997 0 1.512.293 1.512.293.516.292.797.773.797.773.504.844.504 2.426.504 2.426v4.77zm-2.273 1.723v-2.461h-1.899c-1.02 0-1.781.14-1.781.14-.152.504-.152.962-.152.962 0 .457.152.785.152.785.152.328.445.527.445.527.293.2.656.305.656.305.364.105 1.114.093 1.114.093.75-.011 1.465-.351 1.465-.351z" fill="#07385c"/></g><g clip-path="url(#c)" transform="matrix(5.62015 0 0 5.6179 56.008 438.916)"><path d="M37.547 14.613c2.601-1.992 3.96-1.992 3.96-1.992.915 0 1.442.762 1.442.762.457.644.457 1.605.457 1.605v5.602c0 1.066.13 1.383.13 1.383.28.62 1.194.62 1.194.62.47 0 .891-.175.891-.175-1.043.902-1.441 1.16-1.441 1.16-.914.598-1.594.598-1.594.598-.68 0-.973-.235-.973-.235-.293-.234-.41-.62-.41-.62-.129-.41-.129-1.688-.129-1.688v-4.418c0-1.29-.234-1.84-.234-1.84a2.333 2.333 0 0 0-.598-.844c-.363-.293-.82-.281-.82-.281-.457.012-.738.14-.738.14-.282.13-.446.364-.446.364-.703.832-.703 2.695-.703 2.695v3.328c0 .868.188 1.196.188 1.196.351.62 1.172.62 1.172.62.468 0 .89-.175.89-.175-1.043.902-1.441 1.16-1.441 1.16-.914.598-1.594.598-1.594.598-.68 0-.973-.235-.973-.235-.293-.234-.41-.62-.41-.62-.129-.41-.129-1.688-.129-1.688v-4.418c0-1.29-.234-1.84-.234-1.84a2.338 2.338 0 0 0-.598-.844c-.363-.293-.843-.281-.843-.281-.481.012-.762.188-.762.188a1.537 1.537 0 0 0-.457.492c-.176.316-.317.703-.317.703-.14.387-.187.808-.187.808-.106.704-.106 1.465-.106 1.465v3.621c0 .75.457 1.02.457 1.02.164.105.41.105.41.105.247 0 .516-.117.516-.117-1.347 1.16-1.898 1.43-1.898 1.43-.551.27-.88.27-.88.27-.89 0-.89-1.032-.89-1.032v-6.75c0-.41.012-.82.012-.82.012-.41-.082-.75-.082-.75-.223-.738-1.277-.738-1.277-.738-.504 0-1.008.187-1.008.187.304-.105.785-.55.785-.55.937-.845 1.3-.985 1.3-.985.75-.27 1.255-.27 1.255-.27.504 0 .773.188.773.188.27.187.387.48.387.48.14.364.14 1.407.14 1.407 1.524-1.207 2.954-1.77 2.954-1.77.539-.21.972-.21.972-.21.434 0 .762.163.762.163.328.164.574.445.574.445.48.575.55 1.383.55 1.383z" fill="#07385c"/></g><g clip-path="url(#d)" transform="matrix(5.62015 0 0 5.6179 56.008 438.916)"><path d="M50.742 20.402c0 1.301-.926 2.004-.926 2.004h6.61c.949 0 1.43-.222 1.43-.222.48-.223.726-.41.726-.41-1.395 1.722-2.988 2.132-2.988 2.132-.352.094-.715.094-.715.094h-7.594c.656-.633.844-1.055.844-1.055.328-.75.328-1.746.328-1.746V8.73h-2.191l.445-.363c1.5-1.23 1.828-1.23 1.828-1.23h5.344c-.13 0-.703.504-.703.504-.575.504-.797.68-.797.68-.54.41-.774.41-.774.41h-.867z" fill="#07385c"/></g><g clip-path="url(#e)" transform="matrix(5.62015 0 0 5.6179 56.008 438.916)"><path d="M67.5 20.531l-.023.82c0 .915.515 1.16.515 1.16.2.094.457.094.457.094.41 0 .844-.187.844-.187a2.945 2.945 0 0 0-.773.492c-.329.305-.668.598-.668.598-.844.703-1.7.703-1.7.703-.855 0-.914-.984-.914-.984-.023-.258-.023-.516-.023-.516-2.11 1.465-3.867 1.465-3.867 1.465-1.489 0-2.063-.903-2.063-.903-.21-.328-.21-.902-.21-.902 0-.574.35-1.148.35-1.148.352-.575.891-1.067.891-1.067.961-.89 2.32-1.465 2.32-1.465 1.009-.433 2.59-.492 2.59-.492v-.515c0-1.864-.34-2.52-.34-2.52a2.496 2.496 0 0 0-.878-.96c-.54-.306-1.266-.317-1.266-.317-1.23 0-2.168.48-2.168.48 1.29-1.066 1.887-1.406 1.887-1.406 1.23-.691 2.226-.691 2.226-.691.997 0 1.512.293 1.512.293.516.292.797.773.797.773.504.844.504 2.426.504 2.426zm-2.273 1.723v-2.461h-1.899c-1.02 0-1.781.14-1.781.14-.152.504-.152.962-.152.962 0 .457.152.785.152.785.152.328.445.527.445.527.293.2.656.305.656.305.364.105 1.114.093 1.114.093.75-.011 1.465-.351 1.465-.351z" fill="#07385c"/></g><g clip-path="url(#f)" transform="matrix(5.62015 0 0 5.6179 56.008 438.916)"><path d="M73.535 14.543c2.367-2.05 4.313-2.05 4.313-2.05 1.992 0 3.093 1.57 3.093 1.57.95 1.359.95 3.41.95 3.41 0 1.57-1.02 3.199-1.02 3.199-.996 1.582-2.508 2.613-2.508 2.613-1.617 1.09-3.187 1.09-3.187 1.09-1.653 0-2.79-1.137-2.79-1.137-1.124-1.125-1.124-2.789-1.124-2.789V8.836c0-.996-.106-1.324-.106-1.324-.246-.75-.96-.75-.96-.75-.2 0-.493.07-.493.07-.293.07-.48.106-.48.106 1.16-.903 1.746-1.29 1.746-1.29a74.73 74.73 0 0 0 1.23-.832c.645-.445 1.336-.82 1.336-.82zm5.988 6.035c.118-.703.118-1.558.118-1.558 0-.856-.211-1.747-.211-1.747-.211-.89-.692-1.617-.692-1.617-1.054-1.594-2.976-1.594-2.976-1.594-1.02 0-1.653.961-1.653.961-.574.88-.574 1.98-.574 1.98v2.895c0 1.313.95 2.157.95 2.157.937.843 2.355.843 2.355.843 2.297 0 2.683-2.32 2.683-2.32z" fill="#07385c"/></g><g clip-path="url(#g)" transform="matrix(5.62015 0 0 5.6179 56.008 438.916)"><path d="M89.215 8.73c1.945-1.593 2.273-1.593 2.273-1.593h13.219c-.152.023-.715.515-.715.515-.562.493-.785.668-.785.668-.539.41-.773.41-.773.41h-4.805v10.723c0 1.418-.48 2.344-.48 2.344-.211.398-.47.61-.47.61h3.868c-.164.023-.727.515-.727.515-.562.492-.785.668-.785.668-.539.41-.773.41-.773.41h-4.078c.703-.633.879-1.066.879-1.066.28-.692.28-1.735.28-1.735V8.73z" fill="#07385c"/></g><g clip-path="url(#h)" transform="matrix(5.62015 0 0 5.6179 56.008 438.916)"><path d="M113.473 12.61c-1.418 2.085-3.434 2.085-3.434 2.085-.328 0-.844-.257-.844-.257-.984-.493-1.324-.493-1.324-.493-.34 0-.562.223-.562.223-.223.223-.352.621-.352.621-.316.867-.316 2.25-.316 2.25v4.488c0 .75.457 1.02.457 1.02.164.105.41.105.41.105.246 0 .515-.117.515-.117a4.74 4.74 0 0 0-.457.492c-.222.282-.503.563-.503.563-.668.644-1.583.644-1.583.644-.468 0-.796-.293-.796-.293-.329-.293-.329-.738-.329-.738v-6.75c0-.41.012-.82.012-.82.012-.41-.082-.75-.082-.75-.222-.738-1.277-.738-1.277-.738-.504 0-1.008.187-1.008.187.305-.105.785-.55.785-.55.938-.845 1.301-.985 1.301-.985.75-.27 1.207-.27 1.207-.27.457 0 .715.13.715.13.258.128.398.374.398.374.235.387.235 1.196.235 1.196.34-.258.738-.575.738-.575.398-.316.844-.62.844-.62 1.043-.692 1.816-.692 1.816-.692.457 0 .961.258.961.258.504.257.75.375.75.375.246.117.457.117.457.117.469 0 1.266-.48 1.266-.48z" fill="#07385c"/></g><g clip-path="url(#i)" transform="matrix(5.62015 0 0 5.6179 56.008 438.916)"><path d="M116.824 4.113l.07 1.336v.61c0 .562-.14.68-.14.68-.14.116-.305.245-.305.245a59.785 59.785 0 0 1-1.898 1.266c.058-1.172.058-1.207.058-1.207 0-.035-.058-1.336-.058-1.336l2.273-1.594zm2.45 18.446c-.352.28-.68.574-.68.574-.328.293-.703.539-.703.539-.844.55-1.618.55-1.618.55-.726 0-1.02-.222-1.02-.222-.597-.445-.597-1.64-.597-1.64v-5.555c0-1.266-.457-1.64-.457-1.64-.21-.177-.457-.177-.457-.177-.246 0-.41.024-.41.024-.164.023-.352.07-.352.07-.187.047-.363.07-.363.07.586-.457 1.09-.82 1.09-.82.504-.363.879-.61.879-.61.375-.245 1.008-.69 1.008-.69.633-.446 1.336-.821 1.336-.821v8.273c0 1.196.152 1.512.152 1.512.328.645 1.453.645 1.453.645.305 0 .738-.082.738-.082z" fill="#07385c"/></g><g clip-path="url(#j)" transform="matrix(5.62015 0 0 5.6179 56.008 438.916)"><path d="M129.012 21.832c-1.606 1.793-3.985 2.238-3.985 2.238-.55.094-1.359.094-1.359.094-.809 0-1.523-.445-1.523-.445-.715-.446-1.172-1.172-1.172-1.172-.868-1.383-.868-3.375-.868-3.375 0-1.313 1.008-2.906 1.008-2.906.985-1.57 2.403-2.625 2.403-2.625 1.523-1.125 2.882-1.125 2.882-1.125.704 0 1.184.515 1.184.515.445.504.445 1.149.445 1.149 0 .644-.28 1.183-.28 1.183-.282.54-.727 1.067-.727 1.067-.446.527-1.032.984-1.032.984-.586.457-1.195.89-1.195.89-.856.587-2.156 1.325-2.156 1.325.375 1.418 1.324 2.18 1.324 2.18.95.761 2.45.773 2.45.773 1.265 0 2.6-.75 2.6-.75zm-3.54-4.7c.317-.503.317-.984.317-.984 0-.48-.105-.808-.105-.808-.106-.328-.305-.598-.305-.598-.457-.586-1.184-.586-1.184-.586-1.78 0-1.78 3.633-1.78 3.633a8.9 8.9 0 0 0 .105 1.277c2.062-.574 2.953-1.933 2.953-1.933z" fill="#07385c"/></g><g clip-path="url(#k)" transform="matrix(5.62015 0 0 5.6179 56.008 438.916)"><path d="M135.48 14.906c.223-.164.223-.351.223-.351 0-.188-.223-.293-.223-.293a2.627 2.627 0 0 0-.515-.164c-.457-.094-.844-.094-.844-.094-.387 0-.61.035-.61.035a.9.9 0 0 0-.374.152c-.328.223-.328.786-.328.786 0 .562.246.914.246.914.246.351.644.609.644.609.399.258.926.41.926.41.527.153 1.043.317 1.043.317.516.164 1.055.351 1.055.351.539.188.914.492.914.492.902.657.902 1.805.902 1.805 0 1.137-1.09 2.227-1.09 2.227-.926.925-2.437 1.57-2.437 1.57-1.407.61-2.508.61-2.508.61-1.336 0-2.145-.563-2.145-.563-.293-.211-.293-.54-.293-.54 0-.327.305-.609.305-.609.305-.28.715-.515.715-.515.41-.235.82-.457.82-.457.41-.223.621-.47.621-.47-.21.235-.21.528-.21.528 0 .293.328.492.328.492.328.2.773.329.773.329a7.118 7.118 0 0 0 1.488.187c.715 0 1.032-.258 1.032-.258.316-.258.328-.89.328-.89.011-.633-.246-1.008-.246-1.008-.258-.375-.645-.68-.645-.68-.387-.305-.914-.469-.914-.469a14.708 14.708 0 0 1-1.043-.375c-.516-.21-1.055-.375-1.055-.375a3.1 3.1 0 0 1-.914-.457c-.89-.597-.89-1.558-.89-1.558 0-.914 1.078-1.957 1.078-1.957.937-.89 1.957-1.395 1.957-1.395 1.746-.844 2.636-.844 2.636-.844.926 0 1.336.2 1.336.2.41.199.41.34.41.34 0 .14-.093.269-.093.269a.928.928 0 0 1-.223.211c-.129.082-.281.187-.281.187a6.895 6.895 0 0 1-.398.247c-.247.14-.692.433-.692.433a7.556 7.556 0 0 0-.808.621z" fill="#07385c"/></g><g clip-path="url(#l)" transform="matrix(5.62015 0 0 5.6179 56.008 438.916)"><path d="M139.793 13.84l1.523-1.195V10.98c.633-.445.903-.68.903-.68.27-.234.457-.34.457-.34.187-.105.387-.222.387-.222.503-.293.539-.351.539-.351v2.86h3.75c-.153.01-.774.562-.774.562-1.183 1.03-1.5 1.03-1.5 1.03h-1.476v6.282c0 2.156 1.242 2.496 1.242 2.496.375.094.703.094.703.094.539 0 .914-.152.914-.152.375-.153.621-.293.621-.293-.715 1.09-2.004 1.664-2.004 1.664-.668.293-1.43.293-1.43.293-.761 0-1.195-.27-1.195-.27-.433-.27-.68-.703-.68-.703-.457-.797-.457-2.11-.457-2.11v-7.3z" fill="#07385c"/></g><g clip-path="url(#m)" transform="matrix(5.62015 0 0 5.6179 56.008 438.916)"><path d="M157.008 21.832c-1.606 1.793-3.985 2.238-3.985 2.238-.55.094-1.359.094-1.359.094-.809 0-1.523-.445-1.523-.445-.715-.446-1.172-1.172-1.172-1.172-.867-1.383-.867-3.375-.867-3.375 0-1.313 1.007-2.906 1.007-2.906.985-1.57 2.403-2.625 2.403-2.625 1.523-1.125 2.883-1.125 2.883-1.125.703 0 1.183.515 1.183.515.445.504.445 1.149.445 1.149 0 .644-.28 1.183-.28 1.183a6.862 6.862 0 0 1-.727 1.067c-.446.527-1.032.984-1.032.984-.586.457-1.195.89-1.195.89-.855.587-2.156 1.325-2.156 1.325.375 1.418 1.324 2.18 1.324 2.18.95.761 2.45.773 2.45.773 1.265 0 2.6-.75 2.6-.75zm-3.54-4.7c.317-.503.317-.984.317-.984 0-.48-.105-.808-.105-.808-.106-.328-.305-.598-.305-.598-.457-.586-1.184-.586-1.184-.586-1.78 0-1.78 3.633-1.78 3.633a8.9 8.9 0 0 0 .105 1.277c2.062-.574 2.953-1.933 2.953-1.933z" fill="#07385c"/></g><g clip-path="url(#n)" transform="matrix(3.6483 0 0 3.50832 94.349 576.316)"><path d="M18.448 5.36c0 1.648-2.624 3.36-2.624 3.36-2.064 1.36-5.36 2.528-5.36 2.528-2.72.96-4.432 1.216-4.432 1.216-.4.928-.4 1.632-.4 1.632 0 .736.608 1.152.608 1.152.608.416 1.552.416 1.552.416 1.888 0 4.016-.848 4.016-.848a15.438 15.438 0 0 0 3.328-1.872c.304 0 .24.208.24.208-1.184 1.088-3.184 1.936-3.184 1.936-2.288.992-4.272.992-4.272.992-3.184 0-3.184-2.88-3.184-2.88 0-.272.064-.608.064-.608-.416.032-.72.032-.72.032-1.232 0-2.304-.4-2.304-.4-.912-.336-1.184-.736-1.184-.736-.048-.128.032-.176.032-.176a.745.745 0 0 1 .24-.064c1.2.96 3.28.96 3.28.96.32 0 .752-.032.752-.032.512-1.904 2.608-3.872 2.608-3.872 1.952-1.856 4.48-3.072 4.48-3.072 2.592-1.248 4.576-1.248 4.576-1.248.912 0 1.424.4 1.424.4.464.352.464.976.464.976zm-.512-.256c0-.784-1.088-.784-1.088-.784-2.816 0-6.112 2.544-6.112 2.544-3.024 2.336-4.464 5.088-4.464 5.088 1.44-.288 4.032-1.328 4.032-1.328 3.12-1.248 5.104-2.544 5.104-2.544 2.528-1.648 2.528-2.976 2.528-2.976z" fill="#07365c"/></g><g clip-path="url(#o)" transform="matrix(3.6483 0 0 3.50832 94.349 576.316)"><path d="M20.384 13.744c-.272.272-.608.272-.608.272a1.24 1.24 0 0 1-.144-.016 5.303 5.303 0 0 1-1.184 1.424c-.72.576-1.328.592-1.328.592-1.232 0-1.232-1.232-1.232-1.232 0-1.328 1.056-2.544 1.056-2.544 1.056-1.216 2.368-1.232 2.368-1.232.224 0 .224.096.224.096 0 .16-.224.16-.224.16-.896 0-1.808 1.568-1.808 1.568-.832 1.44-.832 2.416-.832 2.416 0 .512.48.512.48.512.432 0 .992-.592.992-.592.56-.592.976-1.392.976-1.392-.512-.384-.512-1.072-.512-1.072 0-.608.272-.944.272-.944.24-.288.528-.288.528-.288.688 0 .688.912.688.912 0 .64-.336 1.344-.336 1.344.112.016.128.016.128.016.192 0 .4-.176.4-.176.16.032.096.176.096.176zm-.816-1.44c0-.544-.224-.544-.224-.544-.288 0-.288.896-.288.896 0 .576.208.832.208.832.304-.704.304-1.184.304-1.184z" fill="#07365c"/></g><g clip-path="url(#p)" transform="matrix(3.6483 0 0 3.50832 94.349 576.316)"><path d="M27.808 11.248c0-.048-.224.4-.224.4-.336.672-.896 1.936-.896 1.936-.704 1.584-.704 1.824-.704 1.824 0 .24.288.24.288.24.576 0 1.168-1.024 1.168-1.024.288-.096.304.096.304.096a3.89 3.89 0 0 1-.608.768c-.544.528-1.04.528-1.04.528-.912 0-.912-.72-.912-.72 0-.512.496-1.664.496-1.664.336-.8.608-1.264.608-1.264l-.048-.08c-.4.224-1.552 1.712-1.552 1.712-.592.784-1.104 1.712-1.104 1.712-.096.208-.768.288-.768.288-.224.032-.224-.08-.224-.08 0-.08.736-1.616.736-1.616.8-1.648.896-1.904.896-1.904l-.064-.08c-.384.208-1.552 1.712-1.552 1.712a45.83 45.83 0 0 0-1.216 1.616c-.048.096-.288.208-.288.208-.24.112-.432.128-.432.128-.192 0-.192-.192-.192-.192 0-.112.88-1.888.88-1.888.784-1.6.784-2 .784-2 0-.304-.224-.304-.224-.304-.032 0-.56.176-.56.176-.064 0-.096-.096-.096-.096-.032-.096-.016-.16-.016-.16.576-.432 1.264-.432 1.264-.432.64 0 .64.56.64.56 0 .512-.832 2.176-.832 2.176l.064.016c.464-.64 1.28-1.472 1.28-1.472.816-.832 1.168-1.04 1.168-1.04.352-.208.784-.224.784-.224.224 0 .224.128.224.128 0-.016-.224.432-.224.432l-.912 1.84c1.376-1.712 2.208-2.208 2.208-2.208.352-.224.704-.224.704-.224.192 0 .192.176.192.176z" fill="#07365c"/></g><g clip-path="url(#q)" transform="matrix(3.6483 0 0 3.50832 94.349 576.316)"><path d="M33.04 11.856c0 1.104-.992 2.576-.992 2.576-1.072 1.584-2.096 1.584-2.096 1.584-.544 0-.896-.288-.896-.288a142.299 142.299 0 0 1-1.712 3.52c-.048.096-.24.192-.24.192a1.123 1.123 0 0 1-.352.112c-.256 0-.256-.192-.256-.192 0-.064.032-.16.032-.16l3.088-7.104c.048-.112.048-.208.048-.208 0-.256-.192-.256-.192-.256-.064 0-.384.272-.384.272-.24.096-.304-.176-.304-.176.464-.672 1.184-.672 1.184-.672.56 0 .56.672.56.672 0 .576-.304 1.184-.304 1.184 1.2-1.856 2-1.856 2-1.856.816 0 .816.8.816.8zm-.896-.128c0-.272-.144-.272-.144-.272-.24 0-1.072 1.104-1.072 1.104-.736.992-1.36 2.032-1.36 2.032-.192.448-.384.88-.384.88.224.208.512.208.512.208.768 0 1.648-1.6 1.648-1.6.8-1.456.8-2.352.8-2.352z" fill="#07365c"/></g><g clip-path="url(#r)" transform="matrix(3.6483 0 0 3.50832 94.349 576.316)"><path d="M38.864 7.28c0 .464-.432 1.296-.432 1.296-.4.768-.976 1.456-.976 1.456-.992 1.216-2.16 1.968-2.16 1.968-1.376 3.088-1.376 3.488-1.376 3.488 0 .24.224.24.224.24.336 0 .88-.368.88-.368.464-.304.624-.528.624-.528.24.032.24.192.24.192-.224.288-.64.576-.64.576-.624.416-1.232.416-1.232.416-.848 0-.848-.752-.848-.752 0-.592.88-2.656.88-2.656.784-1.856 1.456-3.04 1.456-3.04a11.595 11.595 0 0 1 1.392-1.952c.864-.928 1.472-.928 1.472-.928.496 0 .496.592.496.592zm-.576-.016c0-.176-.144-.176-.144-.176-.192 0-.768.8-.768.8-.576.8-.976 1.712-.976 1.712l-.816 1.776a9.133 9.133 0 0 0 1.68-1.888c1.024-1.6 1.024-2.224 1.024-2.224z" fill="#07365c"/></g><g clip-path="url(#s)" transform="matrix(3.6483 0 0 3.50832 94.349 576.316)"><path d="M40.576 11.76c0 1.04-1.2 1.872-1.2 1.872-.96.64-1.76.72-1.76.72-.192.512-.192.784-.192.784 0 .56.592.56.592.56.48 0 1.088-.432 1.088-.432.48-.352.736-.704.736-.704.208-.112.256.144.256.144-.272.384-.752.752-.752.752-.752.544-1.472.544-1.472.544-1.232 0-1.232-1.216-1.232-1.216 0-1.232 1.072-2.48 1.072-2.48 1.072-1.248 2.016-1.264 2.016-1.264.848 0 .848.72.848.72zm-.656-.096c0-.304-.224-.304-.224-.304-.336 0-.96.896-.96.896-.576.8-.992 1.744-.992 1.744.72-.032 1.44-.832 1.44-.832.72-.8.736-1.504.736-1.504z" fill="#07365c"/></g><g clip-path="url(#t)" transform="matrix(3.6483 0 0 3.50832 94.349 576.316)"><path d="M48.048 11.248c0-.048-.224.4-.224.4-.336.672-.896 1.936-.896 1.936-.704 1.584-.704 1.824-.704 1.824 0 .24.288.24.288.24.576 0 1.168-1.024 1.168-1.024.288-.096.304.096.304.096a3.89 3.89 0 0 1-.608.768c-.544.528-1.04.528-1.04.528-.912 0-.912-.72-.912-.72 0-.512.496-1.664.496-1.664.336-.8.608-1.264.608-1.264l-.048-.08c-.4.224-1.552 1.712-1.552 1.712-.592.784-1.104 1.712-1.104 1.712-.096.208-.768.288-.768.288-.224.032-.224-.08-.224-.08 0-.08.736-1.616.736-1.616.8-1.648.896-1.904.896-1.904l-.064-.08c-.384.208-1.552 1.712-1.552 1.712a45.828 45.828 0 0 0-1.216 1.616c-.048.096-.288.208-.288.208-.24.112-.432.128-.432.128-.192 0-.192-.192-.192-.192 0-.112.88-1.888.88-1.888.784-1.6.784-2 .784-2 0-.304-.224-.304-.224-.304-.032 0-.56.176-.56.176-.064 0-.096-.096-.096-.096-.032-.096-.016-.16-.016-.16.576-.432 1.264-.432 1.264-.432.64 0 .64.56.64.56 0 .512-.832 2.176-.832 2.176l.064.016c.464-.64 1.28-1.472 1.28-1.472.816-.832 1.168-1.04 1.168-1.04.352-.208.784-.224.784-.224.224 0 .224.128.224.128 0-.016-.224.432-.224.432l-.912 1.84c1.376-1.712 2.208-2.208 2.208-2.208.352-.224.704-.224.704-.224.192 0 .192.176.192.176z" fill="#07365c"/></g><g clip-path="url(#u)" transform="matrix(3.6483 0 0 3.50832 94.349 576.316)"><path d="M52.56 11.76c0 1.04-1.2 1.872-1.2 1.872-.96.64-1.76.72-1.76.72-.192.512-.192.784-.192.784 0 .56.592.56.592.56.48 0 1.088-.432 1.088-.432.48-.352.736-.704.736-.704.208-.112.256.144.256.144-.272.384-.752.752-.752.752-.752.544-1.472.544-1.472.544-1.232 0-1.232-1.216-1.232-1.216 0-1.232 1.072-2.48 1.072-2.48 1.072-1.248 2.016-1.264 2.016-1.264.848 0 .848.72.848.72zm-.656-.096c0-.304-.224-.304-.224-.304-.336 0-.96.896-.96.896-.576.8-.992 1.744-.992 1.744.72-.032 1.44-.832 1.44-.832.72-.8.736-1.504.736-1.504z" fill="#07365c"/></g><g clip-path="url(#v)" transform="matrix(3.6483 0 0 3.50832 94.349 576.316)"><path d="M57.872 11.248c0-.048-.224.4-.224.4-.336.672-.896 1.936-.896 1.936-.704 1.584-.704 1.824-.704 1.824 0 .24.288.24.288.24.576 0 1.168-1.024 1.168-1.024.304-.096.304.096.304.096-.224.4-.592.768-.592.768-.56.528-1.056.528-1.056.528-.912 0-.912-.72-.912-.72 0-.512.496-1.664.496-1.664.352-.8.624-1.264.624-1.264l-.064-.08C55.92 12.512 54.752 14 54.752 14c-.752.976-1.216 1.632-1.216 1.632-.224.336-.656.336-.656.336-.192 0-.192-.192-.192-.192 0-.032.88-1.904.88-1.904.768-1.648.768-1.952.768-1.952 0-.304-.224-.304-.224-.304-.08 0-.624.176-.624.176-.176-.064-.112-.256-.112-.256.608-.448 1.312-.448 1.312-.448.224 0 .4.144.4.144.176.144.192.432.192.432 0 .496-.816 2.128-.816 2.128l.064.032c.464-.64 1.28-1.472 1.28-1.472.816-.832 1.168-1.056 1.168-1.056.352-.224.72-.224.72-.224.176 0 .176.176.176.176z" fill="#07365c"/></g><g clip-path="url(#w)" transform="matrix(3.6483 0 0 3.50832 94.349 576.316)"><path d="M62.16 9.168l-1.008 2.16h.736c.224 0 .224.208.224.208 0 .208-.224.208-.224.208h-.944l-1.488 3.184c-.128.272-.128.464-.128.464 0 .32.24.32.24.32.432 0 1.216-.896 1.216-.896a.204.204 0 0 1 .256.08C60.272 16 59.376 16 59.376 16c-.928 0-.928-.768-.928-.768 0-.288.144-.608.144-.608l1.376-2.88h-.672c-.208 0-.208-.208-.208-.208 0-.208.208-.208.208-.208h.864l1.024-2.16c.144-.304.56-.304.56-.304.432 0 .432.192.432.192 0 .048-.016.112-.016.112z" fill="#07365c"/></g><g clip-path="url(#x)" transform="matrix(3.6483 0 0 3.50832 94.349 576.316)"><path d="M67.248 11.232c0 .048-.096.192-.096.192-.032.048-.848 1.92-.848 1.92-.72 1.648-.72 2-.72 2 0 .24.192.24.192.24.368 0 1.216-.992 1.216-.992.064-.016.128.048.128.048.064.064.064.144.064.144-.864 1.232-1.792 1.232-1.792 1.232-.752 0-.752-.752-.752-.752 0-.256.256-.944.256-.944-1.312 1.664-2.096 1.664-2.096 1.664-.816 0-.816-1.008-.816-1.008 0-1.408 1.392-2.688 1.392-2.688 1.344-1.232 2.768-1.232 2.768-1.232.72 0 1.04.096 1.04.096.064.032.064.08.064.08zm-1.36.528c0-.288-.224-.288-.224-.288-.656 0-1.76 1.536-1.76 1.536-1.104 1.536-1.12 2.288-1.12 2.288 0 .288.256.288.256.288.416 0 1.68-1.584 1.68-1.584a8.3 8.3 0 0 0 .864-1.328c.288-.592.304-.912.304-.912z" fill="#07365c"/></g><g clip-path="url(#y)" transform="matrix(3.6483 0 0 3.50832 94.349 576.316)"><path d="M70.64 14.672c-.224.384-.608.768-.608.768-.592.56-1.12.56-1.12.56-.352 0-.592-.224-.592-.224-.24-.224-.256-.576-.256-.576 0-.416.896-2 .896-2 .736-1.296.736-1.44.736-1.44 0-.208-.192-.208-.192-.208-.224 0-.464.352-.464.352-.432.608-.56.736-.56.736-.016.016-.048.016-.048.016-.08 0-.16-.064-.16-.064-.08-.064-.08-.16-.08-.16.448-.576.512-.736.512-.736-.24-.48-.24-.848-.24-.848 0-.784.576-.784.576-.784.528 0 .528.56.528.56 0 .4-.096.56-.096.56l.048.048c.512-.192.688-.192.688-.192.4 0 .4.576.4.576 0 .352-.288.912-.288.912a57.493 57.493 0 0 1-.592 1.088c-.304.528-.592 1.04-.592 1.04-.288.512-.288.752-.288.752 0 .24.192.24.192.24.304 0 .832-.512.832-.512.352-.32.624-.688.624-.688.192.048.144.224.144.224z" fill="#07365c"/></g><g clip-path="url(#z)" transform="matrix(3.6483 0 0 3.50832 94.349 576.316)"><path d="M75.968 11.344c-.08.176-1.36 3.68-1.36 3.68.448-.32.608-.544.608-.544.192 0 .272.208.272.208-.272.32-1.072.848-1.072.848l-.112.32c-.48 1.28-1.456 2.416-1.456 2.416-1.12 1.28-2.08 1.28-2.08 1.28-.672 0-.672-.672-.672-.672 0-.384.448-.944.448-.944.448-.56 1.12-1.04 1.12-1.04a74.568 74.568 0 0 1 1.664-1.056l.496-1.232c-.336.432-.88.864-.88.864-.672.544-1.04.544-1.04.544-.32 0-.528-.224-.528-.224a.96.96 0 0 1-.224-.544c0-.464.768-1.824.768-1.824.832-1.472.832-1.696.832-1.696 0-.256-.208-.256-.208-.256-.176 0-.64.256-.64.256-.176-.048-.224-.224-.224-.224.352-.448 1.184-.448 1.184-.448.752 0 .752.656.752.656 0 .352-.864 1.968-.864 1.968-.864 1.616-.88 1.792-.88 1.792 0 .176.16.176.16.176.48 0 1.392-1.04 1.392-1.04.784-.928 1.04-1.52 1.04-1.52l.656-1.6c.144-.304.288-.336.288-.336.224-.048.32-.048.32-.048.272 0 .272.144.272.144a.322.322 0 0 1-.032.096zm-2.832 4.992c-.784.48-1.008.656-1.008.656a6.53 6.53 0 0 0-.896.944c-.448.592-.448.944-.448.944 0 .288.256.288.256.288.416 0 .992-.752.992-.752.576-.752.976-1.744.976-1.744z" fill="#07365c"/></g><g clip-path="url(#A)" transform="matrix(3.6483 0 0 3.50832 94.349 576.316)"><path d="M85.936 11.232c0 .048-.096.192-.096.192-.032.048-.848 1.92-.848 1.92-.72 1.648-.72 2-.72 2 0 .24.192.24.192.24.368 0 1.216-.992 1.216-.992.064-.016.128.048.128.048.064.064.064.144.064.144-.864 1.232-1.792 1.232-1.792 1.232-.752 0-.752-.752-.752-.752 0-.256.256-.944.256-.944-1.312 1.664-2.096 1.664-2.096 1.664-.816 0-.816-1.008-.816-1.008 0-1.408 1.392-2.688 1.392-2.688 1.344-1.232 2.768-1.232 2.768-1.232.72 0 1.04.096 1.04.096.064.032.064.08.064.08zm-1.36.528c0-.288-.224-.288-.224-.288-.656 0-1.76 1.536-1.76 1.536-1.104 1.536-1.12 2.288-1.12 2.288 0 .288.256.288.256.288.416 0 1.68-1.584 1.68-1.584a8.3 8.3 0 0 0 .864-1.328c.288-.592.304-.912.304-.912z" fill="#07365c"/></g><g clip-path="url(#B)" transform="matrix(3.6483 0 0 3.50832 94.349 576.316)"><path d="M91.424 11.248c0-.048-.224.4-.224.4-.336.672-.896 1.936-.896 1.936-.704 1.584-.704 1.824-.704 1.824 0 .24.288.24.288.24.576 0 1.168-1.024 1.168-1.024.304-.096.304.096.304.096-.224.4-.592.768-.592.768-.56.528-1.056.528-1.056.528-.912 0-.912-.72-.912-.72 0-.512.496-1.664.496-1.664.352-.8.624-1.264.624-1.264l-.064-.08c-.384.224-1.552 1.712-1.552 1.712-.752.976-1.216 1.632-1.216 1.632-.224.336-.656.336-.656.336-.192 0-.192-.192-.192-.192 0-.032.88-1.904.88-1.904.768-1.648.768-1.952.768-1.952 0-.304-.224-.304-.224-.304-.08 0-.624.176-.624.176-.176-.064-.112-.256-.112-.256.608-.448 1.312-.448 1.312-.448.224 0 .4.144.4.144.176.144.192.432.192.432 0 .496-.816 2.128-.816 2.128l.064.032c.464-.64 1.28-1.472 1.28-1.472.816-.832 1.168-1.056 1.168-1.056.352-.224.72-.224.72-.224.176 0 .176.176.176.176z" fill="#07365c"/></g><g clip-path="url(#C)" transform="matrix(3.6483 0 0 3.50832 94.349 576.316)"><path d="M98.8 6.944c-.88 2.144-2.688 6.416-2.688 6.416-.72 1.648-.72 2-.72 2 0 .24.144.24.144.24.272 0 .72-.432.72-.432.272-.272.544-.56.544-.56.176 0 .176.192.176.192-.864 1.232-1.776 1.232-1.776 1.232-.704 0-.704-.688-.704-.688 0-.32.256-1.008.256-1.008C93.44 16 92.672 16 92.672 16c-.352 0-.576-.304-.576-.304-.224-.304-.24-.8-.24-.8 0-1.152 1.168-2.4 1.168-2.4C94.336 11.088 96 11.088 96 11.088h.096c1.6-3.728 1.744-4.032 1.744-4.032.064-.112.112-.16.112-.16a.496.496 0 0 1 .176-.08c.128-.032.448-.128.448-.128.256-.064.256.144.256.144 0 .048-.032.112-.032.112zm-3.008 4.848c0-.288-.272-.288-.272-.288-.672 0-1.792 1.616-1.792 1.616-1.072 1.552-1.072 2.192-1.072 2.192 0 .288.192.288.192.288.48 0 1.728-1.584 1.728-1.584.592-.736.88-1.312.88-1.312.336-.704.336-.912.336-.912z" fill="#07365c"/></g><g clip-path="url(#D)" transform="matrix(3.6483 0 0 3.50832 94.349 576.316)"><path d="M125.28 4.192c-.96 1.712-3.056 5.36-3.056 5.36-.608 1.04-1.216 2.192-1.216 2.192.928.032 1.28.032 1.28.032.384 0 1.088-.096 1.088-.096.208.096.048.32.048.32-.496.24-2.672.24-2.672.24-.144.256-.272.512-.272.512 1.056.592 1.056 1.616 1.056 1.616a1.69 1.69 0 0 1-.528 1.216c-.528.448-1.2.464-1.2.464-.576 0-.96-.416-.96-.416-.384-.416-.4-1.072-.4-1.072 0-.56.736-1.92.736-1.92-1.024-.304-2.544-.384-2.544-.384-4.784 3.84-9.216 3.84-9.216 3.84-2.016 0-3.376-.848-3.376-.848-1.552-.96-1.552-2.688-1.552-2.688 0-2.016 2.208-3.408 2.208-3.408 2.032-1.28 4.544-1.28 4.544-1.28 2.656 0 4.192 1.056 4.192 1.056a.149.149 0 0 1 .048.096c0 .272-.288.192-.288.192-1.136-.912-3.408-.912-3.408-.912-2.4 0-4.432 1.392-4.432 1.392-2.144 1.456-2.144 3.376-2.144 3.376 0 1.216 1.232 1.984 1.232 1.984 1.152.704 2.8.704 2.8.704 4.384 0 8.8-3.52 8.8-3.52l-1.536-.032-6.656-.032h-.528c-.16-.032-.16-.16-.16-.16 0-.144.432-.384.432-.384.432-.24.8-.256.8-.256.24 0 3.056.096 3.056.096 3.152.112 4.352.144 4.352.144l.976.016c.416-.352.704-.64.704-.64 3.328-3.264 6.848-6.72 6.848-6.72.256-.224.656-.32.656-.32.336-.08.336.096.336.096a.483.483 0 0 1-.048.144zm-1.44 1.072l-.128-.016c-.112.128-2.096 2.176-2.096 2.176a330.08 330.08 0 0 1-2.928 2.992c-.624.624-1.328 1.232-1.328 1.232l2.336.064c.48-.784 1.552-2.448 1.552-2.448zm-3.008 8.832c0-.544-.544-.96-.544-.96-.912 1.808-.912 2.192-.912 2.192 0 .464.4.464.4.464.368 0 .704-.528.704-.528.336-.528.352-1.168.352-1.168z" fill="#07365c"/></g><g clip-path="url(#E)" transform="matrix(3.6483 0 0 3.50832 94.349 576.316)"><path d="M128.96 7.28c0 .464-.432 1.296-.432 1.296-.4.768-.976 1.456-.976 1.456-.992 1.216-2.16 1.968-2.16 1.968-1.376 3.088-1.376 3.488-1.376 3.488 0 .24.224.24.224.24.336 0 .88-.368.88-.368.464-.304.624-.528.624-.528.24.032.24.192.24.192-.224.288-.64.576-.64.576-.624.416-1.232.416-1.232.416-.848 0-.848-.752-.848-.752 0-.592.88-2.656.88-2.656.784-1.856 1.456-3.04 1.456-3.04a11.595 11.595 0 0 1 1.392-1.952c.864-.928 1.472-.928 1.472-.928.496 0 .496.592.496.592zm-.576-.016c0-.176-.144-.176-.144-.176-.192 0-.768.8-.768.8-.576.8-.976 1.712-.976 1.712l-.816 1.776a9.133 9.133 0 0 0 1.68-1.888c1.024-1.6 1.024-2.224 1.024-2.224z" fill="#07365c"/></g><g clip-path="url(#F)" transform="matrix(3.6483 0 0 3.50832 94.349 576.316)"><path d="M130.576 9.168l-1.008 2.16h.736c.224 0 .224.208.224.208 0 .208-.224.208-.224.208h-.944l-1.488 3.184c-.128.272-.128.464-.128.464 0 .32.24.32.24.32.432 0 1.216-.896 1.216-.896a.204.204 0 0 1 .256.08C128.688 16 127.792 16 127.792 16c-.928 0-.928-.768-.928-.768 0-.288.144-.608.144-.608l1.376-2.88h-.672c-.208 0-.208-.208-.208-.208 0-.208.208-.208.208-.208h.864l1.024-2.16c.144-.304.56-.304.56-.304.432 0 .432.192.432.192 0 .048-.016.112-.016.112z" fill="#07365c"/></g><g clip-path="url(#G)" transform="matrix(3.6483 0 0 3.50832 94.349 576.316)"><path d="M134.32 11.76c0 1.04-1.2 1.872-1.2 1.872-.96.64-1.76.72-1.76.72-.192.512-.192.784-.192.784 0 .56.592.56.592.56.48 0 1.088-.432 1.088-.432.48-.352.736-.704.736-.704.208-.112.256.144.256.144-.272.384-.752.752-.752.752-.752.544-1.472.544-1.472.544-1.232 0-1.232-1.216-1.232-1.216 0-1.232 1.072-2.48 1.072-2.48 1.072-1.248 2.016-1.264 2.016-1.264.848 0 .848.72.848.72zm-.656-.096c0-.304-.224-.304-.224-.304-.336 0-.96.896-.96.896-.576.8-.992 1.744-.992 1.744.72-.032 1.44-.832 1.44-.832.72-.8.736-1.504.736-1.504z" fill="#07365c"/></g><g clip-path="url(#H)" transform="matrix(3.6483 0 0 3.50832 94.349 576.316)"><path d="M137.504 14.672c-.224.384-.608.768-.608.768-.592.56-1.12.56-1.12.56-.352 0-.592-.224-.592-.224-.24-.224-.256-.576-.256-.576 0-.416.896-2 .896-2 .736-1.296.736-1.44.736-1.44 0-.208-.192-.208-.192-.208-.224 0-.464.352-.464.352-.432.608-.56.736-.56.736-.016.016-.048.016-.048.016-.08 0-.16-.064-.16-.064-.08-.064-.08-.16-.08-.16.448-.576.512-.736.512-.736-.24-.48-.24-.848-.24-.848 0-.784.576-.784.576-.784.528 0 .528.56.528.56 0 .4-.096.56-.096.56l.048.048c.512-.192.688-.192.688-.192.4 0 .4.576.4.576 0 .352-.288.912-.288.912a57.493 57.493 0 0 1-.592 1.088c-.304.528-.592 1.04-.592 1.04-.288.512-.288.752-.288.752 0 .24.192.24.192.24.304 0 .832-.512.832-.512.352-.32.624-.688.624-.688.192.048.144.224.144.224z" fill="#07365c"/></g><g clip-path="url(#I)" transform="matrix(3.6483 0 0 3.50832 94.349 576.316)"><path d="M143.088 11.248c0-.048-.224.4-.224.4-.336.672-.896 1.936-.896 1.936-.704 1.584-.704 1.824-.704 1.824 0 .24.288.24.288.24.576 0 1.168-1.024 1.168-1.024.304-.096.304.096.304.096-.224.4-.592.768-.592.768-.56.528-1.056.528-1.056.528-.912 0-.912-.72-.912-.72 0-.512.496-1.664.496-1.664.352-.8.624-1.264.624-1.264l-.064-.08c-.384.224-1.552 1.712-1.552 1.712-.752.976-1.216 1.632-1.216 1.632-.224.336-.656.336-.656.336-.192 0-.192-.192-.192-.192 0-.032.88-1.904.88-1.904.768-1.648.768-1.952.768-1.952 0-.304-.224-.304-.224-.304-.08 0-.624.176-.624.176-.176-.064-.112-.256-.112-.256.608-.448 1.312-.448 1.312-.448.224 0 .4.144.4.144.176.144.192.432.192.432 0 .496-.816 2.128-.816 2.128l.064.032c.464-.64 1.28-1.472 1.28-1.472.816-.832 1.168-1.056 1.168-1.056.352-.224.72-.224.72-.224.176 0 .176.176.176.176z" fill="#07365c"/></g><g clip-path="url(#J)" transform="matrix(3.6483 0 0 3.50832 94.349 576.316)"><path d="M148.784 11.232c0 .048-.096.192-.096.192-.032.048-.848 1.92-.848 1.92-.72 1.648-.72 2-.72 2 0 .24.192.24.192.24.368 0 1.216-.992 1.216-.992.064-.016.128.048.128.048.064.064.064.144.064.144-.864 1.232-1.792 1.232-1.792 1.232-.752 0-.752-.752-.752-.752 0-.256.256-.944.256-.944-1.312 1.664-2.096 1.664-2.096 1.664-.816 0-.816-1.008-.816-1.008 0-1.408 1.392-2.688 1.392-2.688 1.344-1.232 2.768-1.232 2.768-1.232.72 0 1.04.096 1.04.096.064.032.064.08.064.08zm-1.36.528c0-.288-.224-.288-.224-.288-.656 0-1.76 1.536-1.76 1.536-1.104 1.536-1.12 2.288-1.12 2.288 0 .288.256.288.256.288.416 0 1.68-1.584 1.68-1.584a8.3 8.3 0 0 0 .864-1.328c.288-.592.304-.912.304-.912z" fill="#07365c"/></g><g clip-path="url(#K)" transform="matrix(3.6483 0 0 3.50832 94.349 576.316)"><path d="M153.008 9.168L152 11.328h.736c.224 0 .224.208.224.208 0 .208-.224.208-.224.208h-.944l-1.488 3.184c-.128.272-.128.464-.128.464 0 .32.24.32.24.32.432 0 1.216-.896 1.216-.896a.204.204 0 0 1 .256.08C151.12 16 150.224 16 150.224 16c-.928 0-.928-.768-.928-.768 0-.288.144-.608.144-.608l1.376-2.88h-.672c-.208 0-.208-.208-.208-.208 0-.208.208-.208.208-.208h.864l1.024-2.16c.144-.304.56-.304.56-.304.432 0 .432.192.432.192 0 .048-.016.112-.016.112z" fill="#07365c"/></g><g clip-path="url(#L)" transform="matrix(3.6483 0 0 3.50832 94.349 576.316)"><path d="M156.48 9.44c0 .288-.192.528-.192.528a.742.742 0 0 1-.496.256c-.544 0-.544-.624-.544-.624 0-.288.192-.528.192-.528.192-.24.496-.256.496-.256.544 0 .544.624.544.624zm-.672 1.856c-.528 1.056-1.04 2.112-1.04 2.112-.832 1.712-.832 2-.832 2 0 .208.176.208.176.208.24 0 .72-.4.72-.4.4-.32.608-.592.608-.592.048-.016.128.032.128.032.08.048.064.144.064.144-.224.32-.624.672-.624.672-.64.544-1.168.544-1.168.544-.8 0-.8-.768-.8-.768 0-.32.752-1.984.752-1.984.304-.624.704-1.52.704-1.52.064-.176-.112-.176-.112-.176-.352 0-.352-.24-.352-.24 0-.24.272-.224.272-.224a6.001 6.001 0 0 0 1.312-.064c.112-.016.176.048.176.048.064.064.016.208.016.208z" fill="#07365c"/></g><g clip-path="url(#M)" transform="matrix(3.6483 0 0 3.50832 94.349 576.316)"><path d="M160.8 12.352c0 1.264-1.168 2.464-1.168 2.464-1.168 1.2-2.24 1.216-2.24 1.216-.432 0-.704-.272-.704-.272-.272-.272-.272-.736-.272-.736 0-.352.16-.704.16-.704l1.04-2.336c.176-.384-.08-.384-.08-.384-.24 0-.576.176-.576.176-.176-.08-.112-.336-.112-.336.544-.352 1.2-.352 1.2-.352.656 0 .656.56.656.56 0 .176-.064.32-.064.32l-1.328 2.864c-.144.304-.144.544-.144.544 0 .352.32.352.32.352.752 0 1.632-1.168 1.632-1.168.88-1.168.88-2.384.88-2.384 0-.912-.864-.912-.864-.912-.096-.096-.096-.208-.096-.208.016-.112.096-.16.096-.16a2.06 2.06 0 0 1 1.104.352c.56.416.56 1.104.56 1.104z" fill="#07365c"/></g><g clip-path="url(#N)" transform="matrix(3.6483 0 0 3.50832 94.349 576.316)"><path d="M165.136 11.76c0 1.04-1.2 1.872-1.2 1.872-.96.64-1.76.72-1.76.72-.192.512-.192.784-.192.784 0 .56.592.56.592.56.48 0 1.088-.432 1.088-.432.48-.352.736-.704.736-.704.208-.112.256.144.256.144-.272.384-.752.752-.752.752-.752.544-1.472.544-1.472.544-1.232 0-1.232-1.216-1.232-1.216 0-1.232 1.072-2.48 1.072-2.48 1.072-1.248 2.016-1.264 2.016-1.264.848 0 .848.72.848.72zm-.656-.096c0-.304-.224-.304-.224-.304-.336 0-.96.896-.96.896-.576.8-.992 1.744-.992 1.744.72-.032 1.44-.832 1.44-.832.72-.8.736-1.504.736-1.504z" fill="#07365c"/></g><g clip-path="url(#O)" transform="matrix(3.6483 0 0 3.50832 94.349 576.316)"><path d="M195.664 4.24c-1.296 2-2.992 5.344-2.992 5.344-.864 1.696-1.552 3.344-1.552 3.344-.752 1.824-.752 2.336-.752 2.336 0 .432.4.432.4.432.752 0 2.048-1.024 2.048-1.024 1.232-.96 1.632-1.728 1.632-1.728.24-.08.304.16.304.16-.496.864-1.76 1.856-1.76 1.856-1.36 1.072-2.224 1.072-2.224 1.072-1.44 0-1.44-1.52-1.44-1.52 0-.736.528-1.872.528-1.872.336-.752 1.232-2.272 1.232-2.272l2.208-3.648-.176.112a455.976 455.976 0 0 1-3.52 4.64c-1.024 1.264-2.72 2.912-2.72 2.912-1.376 1.328-1.696 1.536-1.696 1.536-.16.112-.24.064-.24.064-.112-.064.016-.288.016-.288.432-.672 1.536-2.688 1.536-2.688 1.392-2.832 2.544-4.816 2.544-4.816a276.857 276.857 0 0 1 1.552-2.592l-.112-.016c-1.488 1.6-4.688 5.168-4.688 5.168-1.712 1.968-4.176 3.376-4.176 3.376-3.296 1.904-6.608 1.904-6.608 1.904-1.984 0-3.2-.848-3.2-.848-1.296-.896-1.296-2.464-1.296-2.464 0-2.192 2.608-3.76 2.608-3.76 2.496-1.488 5.712-1.488 5.712-1.488 1.456 0 2.656.32 2.656.32.912.256 1.248.544 1.248.544.016.048-.112.096-.112.096-.128.048-.272.016-.272.016-1.12-.608-3.328-.608-3.328-.608-2.752 0-5.28 1.664-5.28 1.664-2.528 1.664-2.528 3.52-2.528 3.52 0 2.656 3.84 2.656 3.84 2.656 2.704 0 5.6-1.488 5.6-1.488 2.704-1.376 4.656-3.536 4.656-3.536 5.264-5.824 6.16-6.464 6.16-6.464.144-.096.544-.192.544-.192.32-.08.32.128.32.128 0 .048-.064.112-.064.112-.448.4-1.6 2.608-1.6 2.608-.928 1.888-2.624 5.152-2.624 5.152-.88 1.504-1.392 2.112-1.392 2.112l.048.048c.224-.192 1.36-1.52 1.36-1.52 1.44-1.68 2.624-3.232 2.624-3.232 1.888-2.432 3.92-5.024 3.92-5.024.112-.144.576-.32.576-.32.24-.08.4-.08.4-.08.256 0 .08.256.08.256z" fill="#07365c"/></g><g clip-path="url(#P)" transform="matrix(3.6483 0 0 3.50832 94.349 576.316)"><path d="M198.896 11.76c0 1.04-1.2 1.872-1.2 1.872-.96.64-1.76.72-1.76.72-.192.512-.192.784-.192.784 0 .56.592.56.592.56.48 0 1.088-.432 1.088-.432.48-.352.736-.704.736-.704.208-.112.256.144.256.144-.272.384-.752.752-.752.752-.752.544-1.472.544-1.472.544-1.232 0-1.232-1.216-1.232-1.216 0-1.232 1.072-2.48 1.072-2.48 1.072-1.248 2.016-1.264 2.016-1.264.848 0 .848.72.848.72zm-.656-.096c0-.304-.224-.304-.224-.304-.336 0-.96.896-.96.896-.576.8-.992 1.744-.992 1.744.72-.032 1.44-.832 1.44-.832.72-.8.736-1.504.736-1.504z" fill="#07365c"/></g><g clip-path="url(#Q)" transform="matrix(3.6483 0 0 3.50832 94.349 576.316)"><path d="M205.84 6.944c-.88 2.144-2.688 6.416-2.688 6.416-.72 1.648-.72 2-.72 2 0 .24.144.24.144.24.272 0 .72-.432.72-.432.272-.272.544-.56.544-.56.176 0 .176.192.176.192-.864 1.232-1.776 1.232-1.776 1.232-.704 0-.704-.688-.704-.688 0-.32.256-1.008.256-1.008C200.48 16 199.712 16 199.712 16c-.352 0-.576-.304-.576-.304-.224-.304-.24-.8-.24-.8 0-1.152 1.168-2.4 1.168-2.4 1.312-1.408 2.976-1.408 2.976-1.408h.096c1.6-3.728 1.744-4.032 1.744-4.032.064-.112.112-.16.112-.16a.496.496 0 0 1 .176-.08c.128-.032.448-.128.448-.128.256-.064.256.144.256.144 0 .048-.032.112-.032.112zm-3.008 4.848c0-.288-.272-.288-.272-.288-.672 0-1.792 1.616-1.792 1.616-1.072 1.552-1.072 2.192-1.072 2.192 0 .288.192.288.192.288.48 0 1.728-1.584 1.728-1.584.592-.736.88-1.312.88-1.312.336-.704.336-.912.336-.912z" fill="#07365c"/></g><g clip-path="url(#R)" transform="matrix(3.6483 0 0 3.50832 94.349 576.316)"><path d="M208.112 9.44c0 .288-.192.528-.192.528a.742.742 0 0 1-.496.256c-.544 0-.544-.624-.544-.624 0-.288.192-.528.192-.528.192-.24.496-.256.496-.256.544 0 .544.624.544.624zm-.672 1.856c-.528 1.056-1.04 2.112-1.04 2.112-.832 1.712-.832 2-.832 2 0 .208.176.208.176.208.24 0 .72-.4.72-.4.4-.32.608-.592.608-.592.048-.016.128.032.128.032.08.048.064.144.064.144-.224.32-.624.672-.624.672-.64.544-1.168.544-1.168.544-.8 0-.8-.768-.8-.768 0-.32.752-1.984.752-1.984.304-.624.704-1.52.704-1.52.064-.176-.112-.176-.112-.176-.352 0-.352-.24-.352-.24 0-.24.272-.224.272-.224a6.001 6.001 0 0 0 1.312-.064c.112-.016.176.048.176.048.064.064.016.208.016.208z" fill="#07365c"/></g><g clip-path="url(#S)" transform="matrix(3.6483 0 0 3.50832 94.349 576.316)"><path d="M211.824 11.904c0 .4-.224.608-.224.608a.877.877 0 0 1-.496.224c-.48 0-.48-.464-.48-.464 0-.224.24-.416.24-.416.24-.192.256-.304.256-.304 0-.16-.16-.16-.16-.16-.544 0-1.328 1.632-1.328 1.632-.72 1.536-.72 2.256-.72 2.256 0 .352.304.352.304.352.4 0 .992-.512.992-.512.496-.416.688-.736.688-.736.08-.032.16.032.16.032.08.064.096.192.096.192-.288.4-.752.8-.752.8-.704.608-1.344.608-1.344.608-1.04 0-1.04-1.328-1.04-1.328 0-1.152 1.008-2.4 1.008-2.4 1.008-1.248 2-1.248 2-1.248.8 0 .8.864.8.864z" fill="#07365c"/></g><g clip-path="url(#T)" transform="matrix(3.6483 0 0 3.50832 94.349 576.316)"><path d="M215.536 9.44c0 .288-.192.528-.192.528a.742.742 0 0 1-.496.256c-.544 0-.544-.624-.544-.624 0-.288.192-.528.192-.528.192-.24.496-.256.496-.256.544 0 .544.624.544.624zm-.672 1.856c-.528 1.056-1.04 2.112-1.04 2.112-.832 1.712-.832 2-.832 2 0 .208.176.208.176.208.24 0 .72-.4.72-.4.4-.32.608-.592.608-.592.048-.016.128.032.128.032.08.048.064.144.064.144-.224.32-.624.672-.624.672-.64.544-1.168.544-1.168.544-.8 0-.8-.768-.8-.768 0-.32.752-1.984.752-1.984.304-.624.704-1.52.704-1.52.064-.176-.112-.176-.112-.176-.352 0-.352-.24-.352-.24 0-.24.272-.224.272-.224a6.001 6.001 0 0 0 1.312-.064c.112-.016.176.048.176.048.064.064.016.208.016.208z" fill="#07365c"/></g><g clip-path="url(#U)" transform="matrix(3.6483 0 0 3.50832 94.349 576.316)"><path d="M220.368 11.248c0-.048-.224.4-.224.4-.336.672-.896 1.936-.896 1.936-.704 1.584-.704 1.824-.704 1.824 0 .24.288.24.288.24.576 0 1.168-1.024 1.168-1.024.304-.096.304.096.304.096-.224.4-.592.768-.592.768-.56.528-1.056.528-1.056.528-.912 0-.912-.72-.912-.72 0-.512.496-1.664.496-1.664.352-.8.624-1.264.624-1.264l-.064-.08c-.384.224-1.552 1.712-1.552 1.712-.752.976-1.216 1.632-1.216 1.632-.224.336-.656.336-.656.336-.192 0-.192-.192-.192-.192 0-.032.88-1.904.88-1.904.768-1.648.768-1.952.768-1.952 0-.304-.224-.304-.224-.304-.08 0-.624.176-.624.176-.176-.064-.112-.256-.112-.256.608-.448 1.312-.448 1.312-.448.224 0 .4.144.4.144.176.144.192.432.192.432 0 .496-.816 2.128-.816 2.128l.064.032c.464-.64 1.28-1.472 1.28-1.472.816-.832 1.168-1.056 1.168-1.056.352-.224.72-.224.72-.224.176 0 .176.176.176.176z" fill="#07365c"/></g><g clip-path="url(#V)" transform="matrix(3.6483 0 0 3.50832 94.349 576.316)"><path d="M224.88 11.76c0 1.04-1.2 1.872-1.2 1.872-.96.64-1.76.72-1.76.72-.192.512-.192.784-.192.784 0 .56.592.56.592.56.48 0 1.088-.432 1.088-.432.48-.352.736-.704.736-.704.208-.112.256.144.256.144-.272.384-.752.752-.752.752-.752.544-1.472.544-1.472.544-1.232 0-1.232-1.216-1.232-1.216 0-1.232 1.072-2.48 1.072-2.48 1.072-1.248 2.016-1.264 2.016-1.264.848 0 .848.72.848.72zm-.656-.096c0-.304-.224-.304-.224-.304-.336 0-.96.896-.96.896-.576.8-.992 1.744-.992 1.744.72-.032 1.44-.832 1.44-.832.72-.8.736-1.504.736-1.504z" fill="#07365c"/></g><g clip-path="url(#W)" transform="matrix(1.14225 0 0 1.1418 142.927 155.133)"><path d="M251.316 190.68a94.055 94.055 0 0 1-.087 2.528c-.015.307-.029.612-.047.92a92.447 92.447 0 0 1-.206 2.834c-.022.245-.05.491-.073.737a93.867 93.867 0 0 1-.283 2.527c-.029.234-.056.468-.087.702a94.14 94.14 0 0 1-.588 3.774 96.915 96.915 0 0 1-.609 3.188c-5.145 24.383-31.854 39.79-59.556 34.322a44.248 44.248 0 0 1-2.29-.507 63.807 63.807 0 0 1-4.941-1.438c25.145 1.51 48.374-15.371 53.59-40.274 6.85-32.702-1.755-59.993-13.07-80.022.614.707 1.232 1.439 1.853 2.183l.457.552c.65.788 1.302 1.589 1.953 2.417l.002.002.004.004c.613.779 1.226 1.581 1.838 2.395l.299.4c.607.813 1.213 1.64 1.814 2.487l.006.008.004.005.518.735.001.002.002.002a124.954 124.954 0 0 1 4.365 6.681l.022.036.056.093c.278.458.557.916.832 1.382l.002.004.012.021c.574.975 1.136 1.971 1.69 2.979.11.202.222.402.332.605l.004.007c.41.758.814 1.524 1.212 2.3l.016.029.153.297a110.079 110.079 0 0 1 1.717 3.533l.008.016c.146.315.29.633.435.95l.005.013a104.58 104.58 0 0 1 1.455 3.349l.021.05a105.2 105.2 0 0 1 1.027 2.605l.118.315a99.763 99.763 0 0 1 2.698 8.276c.049.176.095.354.143.53.195.722.383 1.448.563 2.18l.159.646c.195.823.38 1.652.554 2.487.057.271.111.542.165.813.148.743.289 1.49.421 2.243a90.454 90.454 0 0 1 .474 3.039 90.64 90.64 0 0 1 .418 3.463c.027.277.05.559.075.838.063.692.117 1.388.164 2.087.02.291.041.58.058.872a83.787 83.787 0 0 1 .128 3.581c.014.796.018 1.597.009 2.401-.006.265-.01.531-.015.796zM70.649 100.132c.15-.432.319-.878.477-1.316.332-.922.66-1.841 1.023-2.787a137.51 137.51 0 0 1 1.883-4.668c.242-.565.488-1.132.741-1.703.15-.34.306-.681.461-1.022.229-.506.458-1.011.696-1.52.275-.587.563-1.178.851-1.768a140.244 140.244 0 0 1 1.748-3.453c.167-.316.34-.633.511-.95a115.886 115.886 0 0 1 2.776-4.879c.13-.216.256-.432.388-.648a111.192 111.192 0 0 1 3.659-5.613c.119-.171.242-.341.363-.512.536-.761 1.084-1.519 1.646-2.273.152-.205.306-.409.46-.614a101.27 101.27 0 0 1 1.805-2.318c.11-.137.216-.275.327-.412a99.253 99.253 0 0 1 4.702-5.396c.148-.158.301-.314.45-.471a95.831 95.831 0 0 1 2.681-2.712 92.616 92.616 0 0 1 2.132-2.006c.181-.165.358-.332.541-.496a91.021 91.021 0 0 1 5.717-4.729c.254-.193.514-.381.771-.572a92.807 92.807 0 0 1 3.244-2.305 85.432 85.432 0 0 1 2.305-1.506c.311-.197.618-.397.933-.591a88.617 88.617 0 0 1 3.332-1.961c.021-.011.042-.021.062-.033a88.698 88.698 0 0 1 3.387-1.782c.38-.19.769-.373 1.154-.559a89.922 89.922 0 0 1 3.824-1.745 91.65 91.65 0 0 1 2.592-1.06c.417-.164.828-.331 1.25-.49a95.623 95.623 0 0 1 3.943-1.393c23.688-7.737 50.39 7.699 59.506 34.409.232.676.443 1.354.642 2.035a65.158 65.158 0 0 1 1.274 5.206c-11.254-22.531-37.482-34.211-61.673-26.273a118.103 118.103 0 0 0-5.806 2.075c-.775.301-1.537.612-2.296.925-.165.068-.335.132-.5.201-.553.231-1.095.473-1.64.711-.361.158-.729.311-1.087.472-.391.176-.771.359-1.158.539-.5.232-1.006.46-1.499.697-.36.173-.709.354-1.065.53-.509.251-1.022.5-1.523.757-.502.258-.993.525-1.488.789-.343.183-.692.361-1.031.547-.476.26-.939.528-1.407.793-.349.197-.704.391-1.048.591-.49.285-.968.577-1.45.867-.312.188-.629.371-.938.561-.497.306-.982.62-1.471.932-.283.181-.572.357-.853.54-.435.283-.858.573-1.287.861-.324.217-.654.432-.974.652-.426.293-.841.593-1.261.89-.311.22-.628.438-.935.66-.477.346-.942.698-1.41 1.049-.24.18-.485.356-.723.538-.417.317-.822.641-1.231.963-.28.22-.566.438-.843.66-.406.325-.801.656-1.2.985-.27.223-.545.442-.811.667-.406.341-.802.688-1.2 1.034-.25.217-.506.431-.753.649-.415.366-.818.736-1.225 1.106-.222.202-.449.401-.668.604-.396.366-.781.736-1.169 1.105-.221.21-.448.419-.667.631-.424.41-.837.824-1.251 1.238-.174.173-.353.345-.525.52-.394.398-.777.799-1.163 1.201-.186.194-.377.386-.562.581-.35.37-.69.742-1.033 1.114-.211.229-.427.456-.635.686-.37.407-.729.817-1.09 1.226-.173.196-.351.391-.522.588-.366.42-.723.844-1.081 1.267-.159.188-.322.375-.48.563-.384.459-.758.921-1.132 1.384-.124.152-.251.304-.374.457-.399.498-.79.998-1.178 1.499-.091.118-.186.235-.277.353-.425.551-.84 1.104-1.251 1.656l-.152.202a123.599 123.599 0 0 0-2.635 3.697l-.024.035a130.118 130.118 0 0 0-4.75 7.467.226.226 0 0 1-.016.026c.05-.146.111-.301.163-.449l.001-.006zm135.47-2.265c13.118 33.277-55.145 53.187-62.797 89.214-5.696 26.778 15.124 53.518 45.596 59.517 30.479 6.008 59.126-10.979 64.781-37.783 14.213-67.419-47.58-110.948-47.58-110.948zm-37.653 38.216c26.037-8.459 38.785-39.852 28.744-69.25-10.027-29.398-39.074-45.705-65.093-37.2-65.514 21.387-72.313 96.685-72.313 96.685 22.257-28.016 73.628 21.15 108.662 9.765zm-55.153 2.854c-20.361-18.323-53.909-13.661-74.36 9.729-20.44 23.395-20.04 56.704.33 74.993C90.575 269.695 159.17 237.93 159.17 237.93c-35.386-5.274-18.495-74.33-45.857-98.993zm5.12 104.518l-.016.001c-.095.01-.191.018-.287.026l-.022.002c-.687.063-1.387.114-2.086.167-1.724.132-3.471.236-5.255.297l-.013.001c-.909.03-1.828.047-2.75.058l-.05.001c-1.471.016-2.953.012-4.455-.029l-.118-.003a112.979 112.979 0 0 1-5.389-.285l-.409-.032a106.76 106.76 0 0 1-2.604-.241l-.308-.034c-.792-.086-1.586-.182-2.383-.287-.152-.02-.304-.038-.456-.059a98.03 98.03 0 0 1-3.116-.476c-.814-.137-1.631-.281-2.449-.438l-.192-.036a100.266 100.266 0 0 1-3.201-.685 91.924 91.924 0 0 1-2.54-.618c-.156-.04-.313-.084-.47-.126a89.351 89.351 0 0 1-2.298-.639l-.511-.148a91.12 91.12 0 0 1-2.563-.805c-.192-.063-.385-.129-.577-.193a88.804 88.804 0 0 1-2.605-.917l-.054-.02a89.657 89.657 0 0 1-3.191-1.259 87.633 87.633 0 0 1-2.639-1.144l-.308-.143a91.625 91.625 0 0 1-2.52-1.202c-.107-.054-.215-.105-.323-.159a87.59 87.59 0 0 1-3.074-1.621 89.874 89.874 0 0 1-5.363-3.206l-.404-.262a90.526 90.526 0 0 1-2.624-1.78c-.084-.059-.167-.121-.252-.181a90.715 90.715 0 0 1-2.476-1.823c-.098-.074-.196-.146-.293-.222a90.215 90.215 0 0 1-2.521-2.012c-.157-.129-.313-.261-.47-.392a93.16 93.16 0 0 1-2.522-2.178c-18.535-16.634-18.535-47.495.039-68.744a48.9 48.9 0 0 1 1.371-1.496 63.445 63.445 0 0 1 3.936-3.773c-13.871 21.021-10.862 49.566 8.094 66.531 24.894 22.276 52.826 28.469 75.825 28.682a135.448 135.448 0 0 1-12.751 1.863c-.123.012-.238.027-.357.039z" fill="#1d5976"/></g><g clip-path="url(#X)" transform="matrix(1.14225 0 0 1.1418 142.927 155.133)"><path d="M251.318 187.483a83.445 83.445 0 0 1-.002 3.197 94.055 94.055 0 0 1-.087 2.528c-.015.307-.029.612-.047.92a92.449 92.449 0 0 1-.206 2.834c-.022.245-.05.491-.073.737a93.876 93.876 0 0 1-.283 2.527c-.029.234-.056.468-.087.702a94.14 94.14 0 0 1-.455 3.01c-.043.254-.088.509-.133.764a96.92 96.92 0 0 1-.609 3.188c-5.145 24.383-31.854 39.79-59.556 34.322a44.248 44.248 0 0 1-2.29-.507 63.807 63.807 0 0 1-4.941-1.438c25.145 1.51 48.374-15.371 53.59-40.274 6.85-32.702-1.755-59.993-13.07-80.022.614.707 1.232 1.439 1.853 2.183l.457.552c.625.758 1.252 1.528 1.879 2.323l.074.094.006.006c.613.779 1.226 1.58 1.838 2.395l.299.4c.606.813 1.212 1.64 1.814 2.487l.01.013.518.735.003.004c.586.838 1.168 1.694 1.745 2.563.269.404.538.806.804 1.217.312.481.62.971.928 1.461.298.475.594.956.889 1.439l.078.129c.278.458.557.916.832 1.382a116.319 116.319 0 0 1 1.385 2.42c.107.193.213.389.319.583.112.203.225.407.336.612a118.504 118.504 0 0 1 1.381 2.626c.079.15.157.301.234.453a109.489 109.489 0 0 1 1.929 4.059 104.58 104.58 0 0 1 1.455 3.349l.021.05c.353.859.694 1.729 1.027 2.605l.118.315a100.099 100.099 0 0 1 2.698 8.276c.049.176.095.354.143.53.195.722.383 1.448.563 2.18l.159.646c.195.823.38 1.652.554 2.487.057.271.111.542.165.813.148.743.289 1.49.421 2.243a90.454 90.454 0 0 1 .474 3.039 90.644 90.644 0 0 1 .418 3.463c.027.277.05.559.075.838.063.692.117 1.388.164 2.087.02.291.041.58.058.872.05.869.085 1.743.108 2.623l.017.96zM75.25 93.091l.024-.035c.419-.611.846-1.223 1.281-1.833l.048-.067c.428-.6.862-1.199 1.306-1.797l.152-.202c.411-.553.827-1.105 1.251-1.656.09-.118.186-.235.277-.353.388-.5.778-1 1.178-1.499.123-.153.25-.304.374-.457.374-.462.749-.924 1.132-1.384.158-.188.321-.375.48-.563.358-.423.714-.846 1.081-1.267.171-.197.349-.392.522-.588.361-.409.72-.819 1.09-1.226.208-.229.424-.457.635-.686.343-.372.683-.744 1.033-1.114.185-.194.376-.387.562-.581.385-.401.769-.803 1.163-1.201.172-.174.351-.346.525-.52.414-.414.828-.828 1.251-1.238.219-.212.446-.42.667-.631.388-.369.773-.74 1.169-1.105.219-.203.446-.402.668-.604.407-.37.811-.74 1.225-1.106.247-.218.503-.433.753-.649.398-.345.794-.692 1.2-1.034.266-.225.542-.444.811-.667.398-.329.793-.66 1.2-.985.277-.222.563-.439.843-.66.409-.322.815-.646 1.231-.963.237-.181.483-.358.723-.538.468-.351.933-.703 1.41-1.049.307-.223.624-.44.935-.66.419-.297.834-.597 1.261-.89.32-.22.65-.435.974-.652.428-.288.852-.578 1.287-.861.28-.183.569-.359.853-.54.489-.312.974-.625 1.471-.932.309-.19.626-.374.938-.561.482-.29.96-.583 1.45-.867.345-.201.7-.394 1.048-.591.468-.265.932-.533 1.407-.793.339-.186.688-.364 1.031-.547.495-.264.985-.531 1.488-.789.501-.257 1.014-.506 1.523-.757.355-.176.705-.356 1.065-.53.493-.237.999-.465 1.499-.697.387-.179.767-.363 1.158-.539.358-.161.726-.313 1.087-.472.545-.238 1.086-.479 1.64-.711.165-.068.334-.133.5-.201.759-.313 1.521-.625 2.296-.925a117.74 117.74 0 0 1 5.806-2.075c24.191-7.938 50.419 3.742 61.673 26.273a65.578 65.578 0 0 0-1.274-5.206 43.519 43.519 0 0 0-.642-2.035c-9.116-26.71-35.817-42.146-59.506-34.409a95.094 95.094 0 0 0-3.943 1.393c-.422.159-.833.327-1.25.49a91.666 91.666 0 0 0-3.932 1.646c-.84.376-1.667.763-2.484 1.159-.385.187-.774.369-1.154.559a90.155 90.155 0 0 0-3.387 1.782l-.062.033a89.412 89.412 0 0 0-3.332 1.961c-.315.194-.622.394-.933.591a85.416 85.416 0 0 0-5.549 3.811c-.257.191-.517.379-.771.572a91.02 91.02 0 0 0-5.717 4.729c-.183.164-.359.331-.541.496a94.864 94.864 0 0 0-2.765 2.627 95.829 95.829 0 0 0-2.048 2.091c-.149.157-.302.313-.45.471a99.254 99.254 0 0 0-4.702 5.396c-.111.137-.217.275-.327.412-.616.768-1.218 1.541-1.805 2.318-.154.205-.308.409-.46.614-.562.754-1.11 1.512-1.646 2.273-.121.171-.244.341-.363.512a111.187 111.187 0 0 0-3.659 5.613c-.132.216-.258.432-.388.648a116.911 116.911 0 0 0-2.776 4.879c-.171.317-.344.634-.511.95a130.572 130.572 0 0 0-1.748 3.453c-.288.59-.576 1.181-.851 1.768-.239.509-.467 1.014-.696 1.52-.155.341-.311.683-.461 1.022a135.368 135.368 0 0 0-1.021 2.366 138.638 138.638 0 0 0-1.603 4.005l-.001.002c-.129.337-.251.669-.377 1.004-.226.602-.431 1.188-.645 1.78-.157.438-.327.886-.478 1.319l-.147.422a132.92 132.92 0 0 1 4.75-7.462zm56.287 148.462c-22.999-.213-50.931-6.405-75.825-28.682-18.956-16.965-21.964-45.51-8.094-66.531a63.733 63.733 0 0 0-3.936 3.773c-.465.488-.923.985-1.371 1.496-18.574 21.249-18.574 52.11-.039 68.744a94.72 94.72 0 0 0 2.522 2.178c.157.131.313.263.47.392a95.66 95.66 0 0 0 2.521 2.012c.098.075.196.147.293.222a90.682 90.682 0 0 0 2.476 1.823c.084.06.168.122.252.181a90.517 90.517 0 0 0 2.624 1.78l.404.262a89.552 89.552 0 0 0 5.363 3.206l.418.23c.883.48 1.769.945 2.656 1.391.108.054.216.105.323.159.838.416 1.679.816 2.52 1.202l.308.143a93.087 93.087 0 0 0 5.884 2.423c.868.322 1.736.625 2.605.917.192.064.385.13.577.193a92.32 92.32 0 0 0 2.563.805c.17.051.341.099.511.148.767.224 1.533.437 2.298.639.157.042.313.086.47.126a91.89 91.89 0 0 0 3.175.762c.856.191 1.712.374 2.566.541l.192.036c.818.157 1.635.302 2.449.438l.592.099a99.26 99.26 0 0 0 2.524.377c.152.021.304.039.456.059.797.105 1.591.201 2.383.287l.308.034c.872.092 1.739.171 2.604.241l.409.032a112.922 112.922 0 0 0 5.507.288c1.223.033 2.434.045 3.637.04.274-.001.545-.008.818-.011.944-.011 1.883-.027 2.813-.06.297-.011.591-.023.886-.036a119.612 119.612 0 0 0 3.455-.188c.308-.021.608-.05.915-.073.706-.054 1.414-.104 2.108-.169l.287-.026c.125-.012.244-.027.368-.039a135.128 135.128 0 0 0 12.755-1.864z" fill="#cd8103"/></g></svg>