<svg xmlns="http://www.w3.org/2000/svg" height="232.667" width="1122.52"><defs><clipPath id="a"><path d="M0 174.5h841.89V0H0z"/></clipPath></defs><path d="M333.092 67.401l.951-22.68h-1.059l-15.116 41.756-15.12-41.756h-1.046l.926 22.69v36.165l-15.133-.01V22.367h20.581l10.02 27.345h.918l10.004-27.345 19.214.005-.006 81.192-15.134.01zm54.581-28.164l-.936.027-7.922 30.689h16.752zm15.695 64.328l-5.128-19.521h-22.207l-5.01 19.52h-17.678l21.994-81.191L400 22.368l21.983 81.197z" fill="#fff"/><g clip-path="url(#a)" transform="matrix(1.33333 0 0 -1.33333 0 232.667)"><path d="M343.965 129.531c3.083 0 5.226.584 6.414 1.75 1.195 1.172 1.786 3.074 1.786 5.756v2.63c0 2.665-.591 4.585-1.786 5.745-1.188 1.172-3.331 1.754-6.414 1.754h-7.498l-.008-17.635zm-7.498-32.705h-12.908l-.006 60.894h23.557c2.96.004 5.612-.453 7.936-1.357 2.329-.908 4.292-2.197 5.899-3.879 1.585-1.685 2.796-3.719 3.619-6.103.815-2.399 1.222-5.07 1.222-8.03 0-4.31-.94-8.006-2.802-11.084-1.865-3.076-4.506-5.117-7.938-6.117L367 96.826h-14.308L342.48 119.4h-6.014zm57.235 25.383l-5.422-7.588V96.826l-13.078-.008v60.903h13.078v-25.494l.706.011 6.628 10.123 10.737 15.364h14.655l-18.232-25.746 19.102-35.153h-14.748zm54.086-15.883c3.712 0 6.295 1.375 7.727 4.145 1.416 2.757 2.13 6.603 2.13 11.564v10.553c0 4.89-.716 8.701-2.13 11.474-1.432 2.758-4.015 4.141-7.727 4.143-3.724-.002-6.302-1.385-7.719-4.143-1.43-2.773-2.135-6.584-2.135-11.474V121.94c0-4.884.704-8.703 2.135-11.47 1.417-2.762 3.995-4.143 7.72-4.143m0-10.555c-8.142 0-14.149 2.754-18.01 8.284-3.87 5.535-5.807 13.255-5.807 23.212 0 9.948 1.936 17.672 5.807 23.205 3.861 5.534 9.868 8.286 18.01 8.286 8.137 0 14.155-2.752 18.018-8.286 3.861-5.533 5.804-13.257 5.804-23.205 0-9.957-1.943-17.677-5.804-23.224-3.863-5.518-9.87-8.272-18.019-8.272M282.013 56.033h-.97v-40.49l-11.168-.008V76.45h15.717l13.869-40.496h.959V76.45h11.166V15.543l-15.7-.008zm41.441-40.49v9.686h13.077v41.533h-13.077v9.687h39.257v-9.687h-13.08V25.229h13.08v-9.694zm70.233 25.387l-5.412-7.578v-17.81l-13.084-.007V76.45h13.09l-.01-25.487.7.008 6.625 10.105 10.742 15.374h14.66L402.763 50.7l19.102-35.157-14.752-.008zm54.101-15.875c3.705 0 6.29 1.385 7.713 4.137 1.428 2.775 2.141 6.617 2.133 11.568l.008 10.557c-.008 4.892-.719 8.71-2.14 11.476-1.425 2.756-4.002 4.14-7.714 4.14-3.739 0-6.307-1.384-7.73-4.14-1.432-2.765-2.145-6.584-2.14-11.476V40.66c0-4.88.708-8.693 2.14-11.468 1.423-2.752 3.984-4.137 7.73-4.137m0-10.568c-8.162.019-14.16 2.77-18.016 8.304-3.874 5.516-5.803 13.248-5.803 23.205 0 9.942 1.93 17.678 5.803 23.207 3.856 5.524 9.854 8.288 18.016 8.282 8.138 0 14.147-2.758 18.01-8.282 3.864-5.53 5.802-13.265 5.802-23.207 0-9.957-1.938-17.69-5.803-23.205-3.862-5.525-9.87-8.304-18.009-8.304m34.189 1.048V76.45h13.188V26.267h26.162l.006-10.732zm70.505 48.262h-.713l-5.917-23.037h12.556zm11.766-48.254l-3.82 14.647H543.75l-3.757-14.647-13.257-.008 16.492 60.914h18.495l16.493-60.914zM623.23 76.45V32.56c0-2.74-.482-5.228-1.444-7.468a15.675 15.675 0 0 0-4.093-5.715c-1.78-1.573-3.921-2.77-6.424-3.629-2.492-.836-5.278-1.262-8.374-1.242-6.208-.02-11.025 1.523-14.426 4.617-3.403 3.08-5.576 7.156-6.505 12.211l12.393 2.533c.468-2.61 1.353-4.744 2.654-6.369 1.31-1.625 3.272-2.444 5.884-2.444 2.224 0 3.956.71 5.194 2.145 1.25 1.424 1.876 3.625 1.876 6.598v31.92h-20.058l.007 10.732zm14.749-60.907v60.906h38.914V65.717H651.07l.003-13.963 24.956-.002V41.016h-24.956l-.003-14.748h25.823V15.543zm62.301 0l-16.152 60.906h14.564l7.157-30.984 3.583-17.533h.704l3.673 17.533 7.225 30.984h13.873l-16.14-60.906zm41.955-.008v9.693h13.097v41.526l-13.097.008v9.687h39.266l-.004-9.695-13.084.008V25.228h13.084v-9.693zm74.425 64.578l-7.677 3.748 8.632 16.924 10.737-5.324zm-1.04-65.627c-8.148 0-14.19 2.764-18.108 8.252-3.929 5.504-5.894 13.252-5.892 23.258 0 9.99 1.961 17.744 5.892 23.254 3.918 5.484 9.958 8.234 18.116 8.234 3.135 0 5.905-.412 8.314-1.262 2.415-.845 4.493-2.02 6.25-3.527a19.143 19.143 0 0 0 4.317-5.506c1.136-2.15 2.021-4.556 2.652-7.236l-12.205-2.963c-.36 1.453-.749 2.793-1.23 4.01-.466 1.22-1.062 2.265-1.786 3.134a7.517 7.517 0 0 1-2.697 2.053c-1.092.492-2.38.746-3.896.746-3.545 0-6.06-1.384-7.544-4.14-1.478-2.766-2.223-6.598-2.223-11.477V40.664c0-4.885.745-8.697 2.223-11.473 1.483-2.752 4-4.137 7.558-4.137 3.016 0 5.213.932 6.58 2.788 1.36 1.863 2.366 4.244 3.003 7.148l12.217-2.959c-.63-2.676-1.516-5.08-2.652-7.238a19.443 19.443 0 0 0-4.317-5.539c-1.757-1.54-3.835-2.717-6.25-3.543-2.409-.813-5.179-1.225-8.322-1.225M88.477 134.932L56.09 167.317 7.676 118.899l48.419-48.406L72.23 86.625l-32.274 32.28 16.134 16.138 32.274-32.275 32.273 32.275 80.69-80.693-16.136-16.135-64.554 64.547L72.23 54.35l48.407-48.41 16.15 16.138-32.284 32.272 16.134 16.143L185.19 5.942 233.6 54.35 120.75 167.207z" fill="#fff"/></g></svg>